<svg width="145" height="26" viewBox="0 0 145 26" fill="none" xmlns="http://www.w3.org/2000/svg">
<path d="M11.1992 10.4336V19.6797C11.1992 20.3203 11.0469 20.8047 10.7422 21.1328C10.4375 21.4609 10.0508 21.625 9.58203 21.625C9.11328 21.625 8.73047 21.457 8.43359 21.1211C8.14453 20.7852 8 20.3047 8 19.6797V10.5273C8 9.89453 8.14453 9.41797 8.43359 9.09766C8.73047 8.77734 9.11328 8.61719 9.58203 8.61719C10.0508 8.61719 10.4375 8.77734 10.7422 9.09766C11.0469 9.41797 11.1992 9.86328 11.1992 10.4336ZM9.61719 7.12891C9.17188 7.12891 8.78906 6.99219 8.46875 6.71875C8.15625 6.44531 8 6.05859 8 5.55859C8 5.10547 8.16016 4.73438 8.48047 4.44531C8.80859 4.14844 9.1875 4 9.61719 4C10.0312 4 10.3984 4.13281 10.7188 4.39844C11.0391 4.66406 11.1992 5.05078 11.1992 5.55859C11.1992 6.05078 11.043 6.4375 10.7305 6.71875C10.418 6.99219 10.0469 7.12891 9.61719 7.12891Z" fill="white"/>
<path d="M17.4219 10.3867V10.7734C17.9844 10.0312 18.5977 9.48828 19.2617 9.14453C19.9336 8.79297 20.7031 8.61719 21.5703 8.61719C22.4141 8.61719 23.168 8.80078 23.832 9.16797C24.4961 9.53516 24.9922 10.0547 25.3203 10.7266C25.5312 11.1172 25.668 11.5391 25.7305 11.9922C25.793 12.4453 25.8242 13.0234 25.8242 13.7266V19.6797C25.8242 20.3203 25.6758 20.8047 25.3789 21.1328C25.0898 21.4609 24.7109 21.625 24.2422 21.625C23.7656 21.625 23.3789 21.457 23.082 21.1211C22.7852 20.7852 22.6367 20.3047 22.6367 19.6797V14.3477C22.6367 13.293 22.4883 12.4883 22.1914 11.9336C21.9023 11.3711 21.3203 11.0898 20.4453 11.0898C19.875 11.0898 19.3555 11.2617 18.8867 11.6055C18.418 11.9414 18.0742 12.4062 17.8555 13C17.6992 13.4766 17.6211 14.3672 17.6211 15.6719V19.6797C17.6211 20.3281 17.4688 20.8164 17.1641 21.1445C16.8672 21.4648 16.4805 21.625 16.0039 21.625C15.543 21.625 15.1641 21.457 14.8672 21.1211C14.5703 20.7852 14.4219 20.3047 14.4219 19.6797V10.4336C14.4219 9.82422 14.5547 9.37109 14.8203 9.07422C15.0859 8.76953 15.4492 8.61719 15.9102 8.61719C16.1914 8.61719 16.4453 8.68359 16.6719 8.81641C16.8984 8.94922 17.0781 9.14844 17.2109 9.41406C17.3516 9.67969 17.4219 10.0039 17.4219 10.3867Z" fill="white"/>
<path d="M31.9297 10.3867V10.7734C32.4922 10.0312 33.1055 9.48828 33.7695 9.14453C34.4414 8.79297 35.2109 8.61719 36.0781 8.61719C36.9219 8.61719 37.6758 8.80078 38.3398 9.16797C39.0039 9.53516 39.5 10.0547 39.8281 10.7266C40.0391 11.1172 40.1758 11.5391 40.2383 11.9922C40.3008 12.4453 40.332 13.0234 40.332 13.7266V19.6797C40.332 20.3203 40.1836 20.8047 39.8867 21.1328C39.5977 21.4609 39.2188 21.625 38.75 21.625C38.2734 21.625 37.8867 21.457 37.5898 21.1211C37.293 20.7852 37.1445 20.3047 37.1445 19.6797V14.3477C37.1445 13.293 36.9961 12.4883 36.6992 11.9336C36.4102 11.3711 35.8281 11.0898 34.9531 11.0898C34.3828 11.0898 33.8633 11.2617 33.3945 11.6055C32.9258 11.9414 32.582 12.4062 32.3633 13C32.207 13.4766 32.1289 14.3672 32.1289 15.6719V19.6797C32.1289 20.3281 31.9766 20.8164 31.6719 21.1445C31.375 21.4648 30.9883 21.625 30.5117 21.625C30.0508 21.625 29.6719 21.457 29.375 21.1211C29.0781 20.7852 28.9297 20.3047 28.9297 19.6797V10.4336C28.9297 9.82422 29.0625 9.37109 29.3281 9.07422C29.5938 8.76953 29.957 8.61719 30.418 8.61719C30.6992 8.61719 30.9531 8.68359 31.1797 8.81641C31.4062 8.94922 31.5859 9.14844 31.7188 9.41406C31.8594 9.67969 31.9297 10.0039 31.9297 10.3867Z" fill="white"/>
<path d="M55.5078 15.1211C55.5078 16.0742 55.3594 16.9531 55.0625 17.7578C54.7656 18.5625 54.3359 19.2539 53.7734 19.832C53.2109 20.4102 52.5391 20.8555 51.7578 21.168C50.9766 21.4727 50.0977 21.625 49.1211 21.625C48.1523 21.625 47.2812 21.4688 46.5078 21.1562C45.7344 20.8438 45.0625 20.3984 44.4922 19.8203C43.9297 19.2344 43.5 18.5469 43.2031 17.7578C42.9141 16.9609 42.7695 16.082 42.7695 15.1211C42.7695 14.1523 42.918 13.2656 43.2148 12.4609C43.5117 11.6562 43.9375 10.9688 44.4922 10.3984C45.0469 9.82812 45.7188 9.39062 46.5078 9.08594C47.2969 8.77344 48.168 8.61719 49.1211 8.61719C50.0898 8.61719 50.9688 8.77344 51.7578 9.08594C52.5469 9.39844 53.2227 9.84375 53.7852 10.4219C54.3477 11 54.7734 11.6875 55.0625 12.4844C55.3594 13.2812 55.5078 14.1602 55.5078 15.1211ZM52.2969 15.1211C52.2969 13.8164 52.0078 12.8008 51.4297 12.0742C50.8594 11.3477 50.0898 10.9844 49.1211 10.9844C48.4961 10.9844 47.9453 11.1484 47.4688 11.4766C46.9922 11.7969 46.625 12.2734 46.3672 12.9062C46.1094 13.5391 45.9805 14.2773 45.9805 15.1211C45.9805 15.957 46.1055 16.6875 46.3555 17.3125C46.6133 17.9375 46.9766 18.418 47.4453 18.7539C47.9219 19.082 48.4805 19.2461 49.1211 19.2461C50.0898 19.2461 50.8594 18.8828 51.4297 18.1562C52.0078 17.4219 52.2969 16.4102 52.2969 15.1211Z" fill="white"/>
<path d="M59.9727 10.6094L62.5625 17.875L65.3516 10.293C65.5703 9.68359 65.7852 9.25391 65.9961 9.00391C66.207 8.74609 66.5273 8.61719 66.957 8.61719C67.3633 8.61719 67.707 8.75391 67.9883 9.02734C68.2773 9.30078 68.4219 9.61719 68.4219 9.97656C68.4219 10.1172 68.3945 10.2812 68.3398 10.4688C68.293 10.6562 68.2344 10.832 68.1641 10.9961C68.1016 11.1602 68.0273 11.3477 67.9414 11.5586L64.8711 19.1758C64.7852 19.3945 64.6719 19.6719 64.5312 20.0078C64.3984 20.3438 64.2461 20.6328 64.0742 20.875C63.9102 21.1094 63.7031 21.293 63.4531 21.4258C63.2109 21.5586 62.9141 21.625 62.5625 21.625C62.1094 21.625 61.7461 21.5234 61.4727 21.3203C61.207 21.1094 61.0078 20.8828 60.875 20.6406C60.75 20.3906 60.5352 19.9023 60.2305 19.1758L57.1836 11.6406C57.1133 11.4531 57.0391 11.2656 56.9609 11.0781C56.8906 10.8906 56.8281 10.6992 56.7734 10.5039C56.7266 10.3086 56.7031 10.1406 56.7031 10C56.7031 9.78125 56.7695 9.56641 56.9023 9.35547C57.0352 9.13672 57.2188 8.96094 57.4531 8.82812C57.6875 8.6875 57.9414 8.61719 58.2148 8.61719C58.7461 8.61719 59.1094 8.76953 59.3047 9.07422C59.5078 9.37891 59.7305 9.89062 59.9727 10.6094Z" fill="white"/>
<path d="M82.3672 15.1211C82.3672 16.0742 82.2188 16.9531 81.9219 17.7578C81.625 18.5625 81.1953 19.2539 80.6328 19.832C80.0703 20.4102 79.3984 20.8555 78.6172 21.168C77.8359 21.4727 76.957 21.625 75.9805 21.625C75.0117 21.625 74.1406 21.4688 73.3672 21.1562C72.5938 20.8438 71.9219 20.3984 71.3516 19.8203C70.7891 19.2344 70.3594 18.5469 70.0625 17.7578C69.7734 16.9609 69.6289 16.082 69.6289 15.1211C69.6289 14.1523 69.7773 13.2656 70.0742 12.4609C70.3711 11.6562 70.7969 10.9688 71.3516 10.3984C71.9062 9.82812 72.5781 9.39062 73.3672 9.08594C74.1562 8.77344 75.0273 8.61719 75.9805 8.61719C76.9492 8.61719 77.8281 8.77344 78.6172 9.08594C79.4062 9.39844 80.082 9.84375 80.6445 10.4219C81.207 11 81.6328 11.6875 81.9219 12.4844C82.2188 13.2812 82.3672 14.1602 82.3672 15.1211ZM79.1562 15.1211C79.1562 13.8164 78.8672 12.8008 78.2891 12.0742C77.7188 11.3477 76.9492 10.9844 75.9805 10.9844C75.3555 10.9844 74.8047 11.1484 74.3281 11.4766C73.8516 11.7969 73.4844 12.2734 73.2266 12.9062C72.9688 13.5391 72.8398 14.2773 72.8398 15.1211C72.8398 15.957 72.9648 16.6875 73.2148 17.3125C73.4727 17.9375 73.8359 18.418 74.3047 18.7539C74.7812 19.082 75.3398 19.2461 75.9805 19.2461C76.9492 19.2461 77.7188 18.8828 78.2891 18.1562C78.8672 17.4219 79.1562 16.4102 79.1562 15.1211Z" fill="white"/>
<path d="M95.1992 17.4414C95.1992 18.3242 94.9844 19.082 94.5547 19.7148C94.125 20.3398 93.4883 20.8164 92.6445 21.1445C91.8086 21.4648 90.7891 21.625 89.5859 21.625C88.4375 21.625 87.4531 21.4492 86.6328 21.0977C85.8125 20.7461 85.207 20.3086 84.8164 19.7852C84.4258 19.2539 84.2305 18.7227 84.2305 18.1914C84.2305 17.8398 84.3555 17.5391 84.6055 17.2891C84.8555 17.0391 85.1719 16.9141 85.5547 16.9141C85.8906 16.9141 86.1484 16.9961 86.3281 17.1602C86.5078 17.3242 86.6797 17.5547 86.8438 17.8516C87.1719 18.4219 87.5625 18.8477 88.0156 19.1289C88.4766 19.4102 89.1016 19.5508 89.8906 19.5508C90.5312 19.5508 91.0547 19.4102 91.4609 19.1289C91.875 18.8398 92.082 18.5117 92.082 18.1445C92.082 17.582 91.8672 17.1719 91.4375 16.9141C91.0156 16.6562 90.3164 16.4102 89.3398 16.1758C88.2383 15.9023 87.3398 15.6172 86.6445 15.3203C85.957 15.0156 85.4062 14.6172 84.9922 14.125C84.5781 13.6328 84.3711 13.0273 84.3711 12.3086C84.3711 11.668 84.5625 11.0625 84.9453 10.4922C85.3281 9.92188 85.8906 9.46875 86.6328 9.13281C87.3828 8.78906 88.2852 8.61719 89.3398 8.61719C90.168 8.61719 90.9102 8.70312 91.5664 8.875C92.2305 9.04688 92.7812 9.27734 93.2188 9.56641C93.6641 9.85547 94 10.1758 94.2266 10.5273C94.4609 10.8789 94.5781 11.2227 94.5781 11.5586C94.5781 11.9258 94.4531 12.2266 94.2031 12.4609C93.9609 12.6953 93.6133 12.8125 93.1602 12.8125C92.832 12.8125 92.5508 12.7188 92.3164 12.5312C92.0898 12.3438 91.8281 12.0625 91.5312 11.6875C91.2891 11.375 91.0039 11.125 90.6758 10.9375C90.3477 10.75 89.9023 10.6562 89.3398 10.6562C88.7617 10.6562 88.2812 10.7812 87.8984 11.0312C87.5156 11.2734 87.3242 11.5781 87.3242 11.9453C87.3242 12.2812 87.4648 12.5586 87.7461 12.7773C88.0273 12.9883 88.4062 13.1641 88.8828 13.3047C89.3594 13.4453 90.0156 13.6172 90.8516 13.8203C91.8438 14.0625 92.6523 14.3516 93.2773 14.6875C93.9102 15.0234 94.3867 15.4219 94.707 15.8828C95.0352 16.3359 95.1992 16.8555 95.1992 17.4414Z" fill="white"/>
<path d="M106.836 15.9062H100.578C100.586 16.6328 100.73 17.2734 101.012 17.8281C101.301 18.3828 101.68 18.8008 102.148 19.082C102.625 19.3633 103.148 19.5039 103.719 19.5039C104.102 19.5039 104.449 19.4609 104.762 19.375C105.082 19.2812 105.391 19.1406 105.688 18.9531C105.984 18.7578 106.258 18.5508 106.508 18.332C106.758 18.1133 107.082 17.8164 107.48 17.4414C107.645 17.3008 107.879 17.2305 108.184 17.2305C108.512 17.2305 108.777 17.3203 108.98 17.5C109.184 17.6797 109.285 17.9336 109.285 18.2617C109.285 18.5508 109.172 18.8906 108.945 19.2812C108.719 19.6641 108.375 20.0352 107.914 20.3945C107.461 20.7461 106.887 21.0391 106.191 21.2734C105.504 21.5078 104.711 21.625 103.812 21.625C101.758 21.625 100.16 21.0391 99.0195 19.8672C97.8789 18.6953 97.3086 17.1055 97.3086 15.0977C97.3086 14.1523 97.4492 13.2773 97.7305 12.4727C98.0117 11.6602 98.4219 10.9648 98.9609 10.3867C99.5 9.80859 100.164 9.36719 100.953 9.0625C101.742 8.75 102.617 8.59375 103.578 8.59375C104.828 8.59375 105.898 8.85938 106.789 9.39062C107.688 9.91406 108.359 10.5938 108.805 11.4297C109.25 12.2656 109.473 13.1172 109.473 13.9844C109.473 14.7891 109.242 15.3125 108.781 15.5547C108.32 15.7891 107.672 15.9062 106.836 15.9062ZM100.578 14.0898H106.379C106.301 12.9961 106.004 12.1797 105.488 11.6406C104.98 11.0938 104.309 10.8203 103.473 10.8203C102.676 10.8203 102.02 11.0977 101.504 11.6523C100.996 12.1992 100.688 13.0117 100.578 14.0898Z" fill="white"/>
<path d="M115.086 10.3867V10.7734C115.648 10.0312 116.262 9.48828 116.926 9.14453C117.598 8.79297 118.367 8.61719 119.234 8.61719C120.078 8.61719 120.832 8.80078 121.496 9.16797C122.16 9.53516 122.656 10.0547 122.984 10.7266C123.195 11.1172 123.332 11.5391 123.395 11.9922C123.457 12.4453 123.488 13.0234 123.488 13.7266V19.6797C123.488 20.3203 123.34 20.8047 123.043 21.1328C122.754 21.4609 122.375 21.625 121.906 21.625C121.43 21.625 121.043 21.457 120.746 21.1211C120.449 20.7852 120.301 20.3047 120.301 19.6797V14.3477C120.301 13.293 120.152 12.4883 119.855 11.9336C119.566 11.3711 118.984 11.0898 118.109 11.0898C117.539 11.0898 117.02 11.2617 116.551 11.6055C116.082 11.9414 115.738 12.4062 115.52 13C115.363 13.4766 115.285 14.3672 115.285 15.6719V19.6797C115.285 20.3281 115.133 20.8164 114.828 21.1445C114.531 21.4648 114.145 21.625 113.668 21.625C113.207 21.625 112.828 21.457 112.531 21.1211C112.234 20.7852 112.086 20.3047 112.086 19.6797V10.4336C112.086 9.82422 112.219 9.37109 112.484 9.07422C112.75 8.76953 113.113 8.61719 113.574 8.61719C113.855 8.61719 114.109 8.68359 114.336 8.81641C114.562 8.94922 114.742 9.14844 114.875 9.41406C115.016 9.67969 115.086 10.0039 115.086 10.3867Z" fill="white"/>
<path d="M136.988 17.4414C136.988 18.3242 136.773 19.082 136.344 19.7148C135.914 20.3398 135.277 20.8164 134.434 21.1445C133.598 21.4648 132.578 21.625 131.375 21.625C130.227 21.625 129.242 21.4492 128.422 21.0977C127.602 20.7461 126.996 20.3086 126.605 19.7852C126.215 19.2539 126.02 18.7227 126.02 18.1914C126.02 17.8398 126.145 17.5391 126.395 17.2891C126.645 17.0391 126.961 16.9141 127.344 16.9141C127.68 16.9141 127.938 16.9961 128.117 17.1602C128.297 17.3242 128.469 17.5547 128.633 17.8516C128.961 18.4219 129.352 18.8477 129.805 19.1289C130.266 19.4102 130.891 19.5508 131.68 19.5508C132.32 19.5508 132.844 19.4102 133.25 19.1289C133.664 18.8398 133.871 18.5117 133.871 18.1445C133.871 17.582 133.656 17.1719 133.227 16.9141C132.805 16.6562 132.105 16.4102 131.129 16.1758C130.027 15.9023 129.129 15.6172 128.434 15.3203C127.746 15.0156 127.195 14.6172 126.781 14.125C126.367 13.6328 126.16 13.0273 126.16 12.3086C126.16 11.668 126.352 11.0625 126.734 10.4922C127.117 9.92188 127.68 9.46875 128.422 9.13281C129.172 8.78906 130.074 8.61719 131.129 8.61719C131.957 8.61719 132.699 8.70312 133.355 8.875C134.02 9.04688 134.57 9.27734 135.008 9.56641C135.453 9.85547 135.789 10.1758 136.016 10.5273C136.25 10.8789 136.367 11.2227 136.367 11.5586C136.367 11.9258 136.242 12.2266 135.992 12.4609C135.75 12.6953 135.402 12.8125 134.949 12.8125C134.621 12.8125 134.34 12.7188 134.105 12.5312C133.879 12.3438 133.617 12.0625 133.32 11.6875C133.078 11.375 132.793 11.125 132.465 10.9375C132.137 10.75 131.691 10.6562 131.129 10.6562C130.551 10.6562 130.07 10.7812 129.688 11.0312C129.305 11.2734 129.113 11.5781 129.113 11.9453C129.113 12.2812 129.254 12.5586 129.535 12.7773C129.816 12.9883 130.195 13.1641 130.672 13.3047C131.148 13.4453 131.805 13.6172 132.641 13.8203C133.633 14.0625 134.441 14.3516 135.066 14.6875C135.699 15.0234 136.176 15.4219 136.496 15.8828C136.824 16.3359 136.988 16.8555 136.988 17.4414Z" fill="white"/>
</svg>
