<svg width="32" height="32" viewBox="0 0 32 32" fill="none" xmlns="http://www.w3.org/2000/svg">
<path d="M21.3333 17.6667C21.2725 19.0312 20.6807 20.3179 19.6843 21.2521C18.6878 22.1863 17.3656 22.6939 16 22.6667C14.6307 22.7071 13.3011 22.2039 12.3017 21.267C11.3024 20.3301 10.7145 19.0357 10.6667 17.6667C10.6667 14.2756 14.268 9.33333 16 9.33333C17.6092 9.33333 21.3333 14.2233 21.3333 17.6667Z" stroke="#3DC0F2" stroke-width="1.5" stroke-linecap="round" stroke-linejoin="round"/>
<path d="M16 4C12.8174 4 9.76516 5.26428 7.51472 7.51472C5.26428 9.76516 4 12.8174 4 16C4 19.1826 5.26428 22.2348 7.51472 24.4853C9.76516 26.7357 12.8174 28 16 28" stroke="#3DC0F2" stroke-width="1.5" stroke-linecap="round" stroke-linejoin="round"/>
<path d="M27.3333 14.6667C27.7015 14.6667 28 14.3682 28 14C28 13.6318 27.7015 13.3333 27.3333 13.3333C26.9651 13.3333 26.6667 13.6318 26.6667 14C26.6667 14.3682 26.9651 14.6667 27.3333 14.6667Z" fill="#EB5757" stroke="#EB5757" stroke-width="0.5" stroke-miterlimit="10"/>
<path d="M27.3333 18.6667C27.7015 18.6667 28 18.3682 28 18C28 17.6318 27.7015 17.3333 27.3333 17.3333C26.9651 17.3333 26.6667 17.6318 26.6667 18C26.6667 18.3682 26.9651 18.6667 27.3333 18.6667Z" fill="#EB5757" stroke="#EB5757" stroke-width="0.5" stroke-miterlimit="10"/>
<path d="M26 10.6667C26.3682 10.6667 26.6667 10.3682 26.6667 9.99999C26.6667 9.63181 26.3682 9.33333 26 9.33333C25.6318 9.33333 25.3333 9.63181 25.3333 9.99999C25.3333 10.3682 25.6318 10.6667 26 10.6667Z" fill="#EB5757" stroke="#EB5757" stroke-width="0.5" stroke-miterlimit="10"/>
<path d="M26 22.6667C26.3682 22.6667 26.6667 22.3682 26.6667 22C26.6667 21.6318 26.3682 21.3333 26 21.3333C25.6318 21.3333 25.3333 21.6318 25.3333 22C25.3333 22.3682 25.6318 22.6667 26 22.6667Z" fill="#EB5757" stroke="#EB5757" stroke-width="0.5" stroke-miterlimit="10"/>
<path d="M23.7333 7.33333C24.1015 7.33333 24.4 7.03486 24.4 6.66667C24.4 6.29848 24.1015 6 23.7333 6C23.3651 6 23.0667 6.29848 23.0667 6.66667C23.0667 7.03486 23.3651 7.33333 23.7333 7.33333Z" fill="#EB5757" stroke="#EB5757" stroke-width="0.5" stroke-miterlimit="10"/>
<path d="M23.7333 26C24.1015 26 24.4 25.7015 24.4 25.3333C24.4 24.9651 24.1015 24.6667 23.7333 24.6667C23.3651 24.6667 23.0667 24.9651 23.0667 25.3333C23.0667 25.7015 23.3651 26 23.7333 26Z" fill="#EB5757" stroke="#EB5757" stroke-width="0.5" stroke-miterlimit="10"/>
<path d="M20 5.33333C20.3682 5.33333 20.6667 5.03486 20.6667 4.66667C20.6667 4.29848 20.3682 4 20 4C19.6318 4 19.3333 4.29848 19.3333 4.66667C19.3333 5.03486 19.6318 5.33333 20 5.33333Z" fill="#EB5757" stroke="#EB5757" stroke-width="0.5" stroke-miterlimit="10"/>
<path d="M20 28C20.3682 28 20.6667 27.7015 20.6667 27.3333C20.6667 26.9651 20.3682 26.6667 20 26.6667C19.6318 26.6667 19.3333 26.9651 19.3333 27.3333C19.3333 27.7015 19.6318 28 20 28Z" fill="#EB5757" stroke="#EB5757" stroke-width="0.5" stroke-miterlimit="10"/>
</svg>
