<svg width="32" height="32" viewBox="0 0 32 32" fill="none" xmlns="http://www.w3.org/2000/svg">
<path d="M21.3333 17.6667C21.2725 19.0312 20.6807 20.3179 19.6843 21.2521C18.6878 22.1863 17.3656 22.6939 16 22.6667C14.6307 22.7071 13.3011 22.2039 12.3017 21.267C11.3024 20.3301 10.7145 19.0357 10.6667 17.6667C10.6667 14.2756 14.268 9.33333 16 9.33333C17.6092 9.33333 21.3333 14.2233 21.3333 17.6667Z" stroke="#006092" stroke-width="1.5" stroke-linecap="round" stroke-linejoin="round"/>
<path fill-rule="evenodd" clip-rule="evenodd" d="M16 3.25C12.6185 3.25 9.37548 4.5933 6.98439 6.98439C4.5933 9.37548 3.25 12.6185 3.25 16C3.25 19.3815 4.5933 22.6245 6.98439 25.0156C9.37548 27.4067 12.6185 28.75 16 28.75C19.3815 28.75 22.6245 27.4067 25.0156 25.0156C27.4067 22.6245 28.75 19.3815 28.75 16C28.75 12.6185 27.4067 9.37548 25.0156 6.98439C22.6245 4.5933 19.3815 3.25 16 3.25ZM16 4.75C13.0163 4.75 10.1548 5.93527 8.04505 8.04505C5.93526 10.1548 4.75 13.0163 4.75 16C4.75 18.9837 5.93526 21.8452 8.04505 23.955C10.1548 26.0647 13.0163 27.25 16 27.25C18.9837 27.25 21.8452 26.0647 23.955 23.955C26.0647 21.8452 27.25 18.9837 27.25 16C27.25 13.0163 26.0647 10.1548 23.955 8.04505C21.8452 5.93526 18.9837 4.75 16 4.75Z" fill="#3DC0F2"/>
</svg>
