<svg width="32" height="32" viewBox="0 0 32 32" fill="none" xmlns="http://www.w3.org/2000/svg">
<path d="M18.662 13.7778C18.662 16 18.662 21.3333 18.662 23.5555C18.7404 26 17.8397 26.6667 15.9996 26.6667C14.1307 26.6667 13.2669 26 13.3373 23.5555C13.3373 21.3333 13.3373 16 13.3373 13.7778C13.3373 12 13.3373 10.6667 15.9996 10.6667C18.662 10.6667 18.662 12 18.662 13.7778Z" stroke="#3DC0F2" stroke-width="1.5" stroke-linecap="round" stroke-linejoin="round"/>
<path d="M9.33333 20.7037C9.33333 22 9.33333 22.772 9.33333 24.3924C9.33333 26.0127 8.50971 26.6666 6.66667 26.6666C4.7947 26.6666 4 26.0127 4 24.3924C4 23.0961 4 22 4 20.7037C4 18.5 3.99998 17.3333 6.66667 17.3333C9.33335 17.3333 9.25476 18.5 9.33333 20.7037Z" stroke="#006092" stroke-width="1.5" stroke-linecap="round" stroke-linejoin="round"/>
<path d="M28 9.03703C28 12 28 20 28 22.963C28 26.6667 27.1764 26.6667 25.3333 26.6667C23.4614 26.6667 22.6667 26.6667 22.6667 22.963C22.6667 20 22.6667 12 22.6667 9.03703C22.6667 6.07407 22.6666 5.33333 25.3333 5.33333C28 5.33333 28 6.07407 28 9.03703Z" stroke="#006092" stroke-width="1.5" stroke-linecap="round" stroke-linejoin="round"/>
</svg>
