<svg width="32" height="32" viewBox="0 0 32 32" fill="none" xmlns="http://www.w3.org/2000/svg">
<path d="M4 22.6667L10.92 15.56C11.0451 15.4181 11.199 15.3045 11.3714 15.2267C11.5438 15.1488 11.7308 15.1086 11.92 15.1086C12.1092 15.1086 12.2962 15.1488 12.4686 15.2267C12.641 15.3045 12.7949 15.4181 12.92 15.56L16.5867 19.44C16.7118 19.5819 16.8657 19.6955 17.0381 19.7733C17.2105 19.8512 17.3975 19.8914 17.5867 19.8914C17.7758 19.8914 17.9628 19.8512 18.1352 19.7733C18.3077 19.6955 18.4615 19.5819 18.5867 19.44L26.6667 11" stroke="#3DC0F2" stroke-width="1.5" stroke-linecap="round" stroke-linejoin="round"/>
<path d="M4 22.67L10.92 11.56C11.0451 11.4181 11.199 11.3045 11.3714 11.2267C11.5438 11.1488 11.7308 11.1086 11.92 11.1086C12.1092 11.1086 12.2962 11.1488 12.4686 11.2267C12.641 11.3045 12.7949 11.4181 12.92 11.56L16.5867 15.44C16.7118 15.5819 16.8657 15.6955 17.0381 15.7733C17.2105 15.8512 17.3975 15.8914 17.5867 15.8914C17.7758 15.8914 17.9628 15.8512 18.1353 15.7733C18.3077 15.6955 18.4615 15.5819 18.5867 15.44L24.5 7" stroke="#006092" stroke-width="1.5" stroke-linecap="round" stroke-linejoin="round"/>
</svg>
